<?xml version="1.0" standalone="no"?>
<!DOCTYPE svg PUBLIC "-//W3C//DTD SVG 20010904//EN"
 "http://www.w3.org/TR/2001/REC-SVG-20010904/DTD/svg10.dtd">
<svg version="1.0" xmlns="http://www.w3.org/2000/svg"
 width="1080.000000pt" height="1080.000000pt" viewBox="0 0 1080.000000 1080.000000"
 preserveAspectRatio="xMidYMid meet">

<g transform="translate(0.000000,1080.000000) scale(0.100000,-0.100000)"
fill="#000000" stroke="none">
<path d="M6978 6864 c-100 -21 -152 -48 -214 -106 -103 -98 -99 -75 -99 -523
0 -384 0 -391 22 -431 35 -65 96 -111 188 -140 68 -22 104 -27 236 -32 255 -8
381 24 486 121 102 96 103 99 103 521 0 392 -2 410 -65 483 -42 49 -118 87
-219 107 -96 20 -344 20 -438 0z m186 -334 c64 0 113 -16 126 -40 6 -11 10
-115 10 -239 0 -190 2 -221 15 -221 25 0 17 -19 -16 -36 -24 -12 -53 -15 -116
-12 -129 5 -125 -6 -121 301 3 235 4 249 23 263 18 13 20 13 23 0 3 -12 17
-16 56 -16z"/>
<path d="M2129 6819 l-40 -40 3 -387 4 -387 38 -105 c21 -58 47 -131 58 -163
28 -79 45 -87 197 -87 l120 0 41 38 c32 29 45 52 62 107 66 225 69 235 85 235
11 0 14 -6 10 -22 -7 -26 74 -323 92 -341 8 -8 59 -12 154 -12 l143 0 35 35
c27 27 47 67 88 175 28 78 56 170 61 205 5 36 10 218 10 405 0 292 -2 344 -16
363 -14 21 -22 22 -164 22 -143 0 -149 -1 -167 -23 -10 -13 -26 -26 -35 -30
-16 -6 -18 -24 -18 -194 0 -166 3 -193 20 -232 14 -29 20 -64 20 -110 l-1 -66
-57 115 c-64 129 -76 140 -163 140 -49 0 -62 -4 -97 -32 -44 -35 -72 -82 -72
-120 -1 -12 -9 -41 -20 -63 l-19 -40 -1 305 c0 260 -2 309 -16 328 -14 21 -21
22 -165 22 l-149 0 -41 -41z"/>
<path d="M3497 6826 l-37 -34 0 -553 c0 -332 4 -560 10 -569 8 -13 67 -15 414
-18 l405 -3 41 41 40 40 0 113 c0 82 -4 119 -14 133 -13 18 -30 19 -255 22
l-241 3 0 70 c0 61 2 69 19 69 10 0 21 -9 24 -20 5 -19 14 -20 133 -20 l127 0
36 37 36 37 0 113 c0 149 10 142 -208 143 l-168 0 3 62 c2 49 6 62 20 64 10 1
20 -6 23 -17 6 -18 18 -19 202 -19 l196 0 33 36 34 35 0 115 c0 169 43 154
-438 154 l-398 0 -37 -34z"/>
<path d="M4560 6820 l-40 -40 0 -549 0 -550 22 -15 c20 -14 79 -16 453 -16
l430 1 40 35 40 35 0 286 c0 270 -1 285 -19 299 -15 10 -54 14 -157 14 l-138
0 -38 -36 -38 -36 -3 -99 c-4 -98 -4 -99 22 -109 14 -5 26 -16 26 -25 0 -13
-19 -15 -115 -15 l-115 0 0 414 c0 364 -2 417 -16 430 -13 13 -42 16 -165 16
l-149 0 -40 -40z"/>
<path d="M5970 6853 c-19 -2 -63 -13 -98 -24 -50 -17 -75 -33 -131 -87 -101
-100 -103 -107 -109 -449 -6 -402 8 -478 100 -557 79 -68 135 -79 444 -84
l272 -4 41 41 41 41 0 113 c0 82 -4 119 -14 133 -13 17 -31 19 -225 24 -184 4
-213 7 -228 23 -16 16 -18 43 -21 241 l-3 224 25 28 c20 23 25 25 26 12 0 -17
16 -18 183 -18 177 0 184 1 205 23 11 12 28 28 36 35 13 10 16 36 16 132 0
172 20 160 -282 158 -134 0 -259 -3 -278 -5z"/>
<path d="M7911 6821 l-41 -41 0 -549 0 -550 22 -15 c18 -13 52 -16 159 -16
l137 0 41 38 41 38 2 294 3 295 23 -42 c16 -30 22 -59 22 -101 0 -77 22 -108
85 -118 101 -15 169 29 231 150 20 39 43 80 50 91 14 19 14 19 14 0 0 -11 -9
-35 -20 -53 -19 -30 -20 -50 -20 -296 0 -242 1 -264 18 -279 16 -14 43 -17
163 -17 l145 0 40 36 39 36 3 546 c2 478 1 548 -13 568 -15 24 -18 24 -175 24
l-160 0 -40 -36 c-38 -35 -154 -230 -156 -264 -1 -8 -2 -21 -3 -27 0 -7 -14
-13 -29 -13 -26 0 -34 11 -105 143 -114 211 -86 191 -276 195 l-160 3 -40 -40z"/>
<path d="M9290 6821 l-40 -39 0 -550 c0 -519 1 -550 18 -565 17 -15 60 -17
415 -17 l396 0 41 37 40 37 0 122 c0 101 -3 124 -17 135 -12 11 -68 15 -242
17 -124 1 -232 5 -239 7 -9 3 -12 23 -10 67 3 57 5 63 26 66 17 3 22 -2 22
-17 0 -20 5 -21 126 -21 l127 0 38 38 39 37 0 110 c0 61 -5 117 -10 125 -7 12
-44 16 -187 20 l-178 5 -3 39 c-4 52 5 86 24 86 9 0 18 -9 21 -20 5 -19 14
-20 200 -20 l194 0 34 34 35 33 0 123 c0 105 -3 125 -17 136 -14 11 -101 13
-416 14 l-398 0 -39 -39z"/>
</g>
</svg>
